<svg width="17" height="12" viewBox="0 0 17 12" fill="none" xmlns="http://www.w3.org/2000/svg">
<path fill-rule="evenodd" clip-rule="evenodd" d="M10.0144 10.8025C9.49368 10.2818 9.49369 9.43755 10.0144 8.91685L11.7382 7.19299L1.62386 7.19299C0.887482 7.19299 0.290527 6.59604 0.290527 5.85966C0.290527 5.12328 0.88748 4.52633 1.62386 4.52633L11.7382 4.52633L10.0144 2.80247C9.49368 2.28177 9.49369 1.43755 10.0144 0.916851C10.5351 0.396151 11.3793 0.396151 11.9 0.916851L15.9 4.91685C16.1501 5.1669 16.2905 5.50604 16.2905 5.85966C16.2905 6.21328 16.1501 6.55242 15.9 6.80247L11.9 10.8025C11.3793 11.3232 10.5351 11.3232 10.0144 10.8025Z" />
</svg>
