<svg width="18" height="20" viewBox="0 0 18 20" fill="none" xmlns="http://www.w3.org/2000/svg">
<path fill-rule="evenodd" clip-rule="evenodd" d="M0 18.75C-3.01764e-08 18.0596 0.559644 17.5 1.25 17.5H16.25C16.9404 17.5 17.5 18.0596 17.5 18.75C17.5 19.4404 16.9404 20 16.25 20H1.25C0.559644 20 3.01764e-08 19.4404 0 18.75ZM4.11612 9.11612C4.60427 8.62796 5.39573 8.62796 5.88388 9.11612L7.5 10.7322L7.5 1.25C7.5 0.559645 8.05964 3.01764e-08 8.75 0C9.44035 -3.01764e-08 10 0.559643 10 1.25L10 10.7322L11.6161 9.11612C12.1043 8.62796 12.8957 8.62796 13.3839 9.11612C13.872 9.60427 13.872 10.3957 13.3839 10.8839L9.63388 14.6339C9.39946 14.8683 9.08152 15 8.75 15C8.41848 15 8.10054 14.8683 7.86612 14.6339L4.11612 10.8839C3.62796 10.3957 3.62796 9.60427 4.11612 9.11612Z" fill="#AFB6C0"/>
</svg>
