<svg viewBox="0 0 83 46" fill="none" xmlns="http://www.w3.org/2000/svg">
<path d="M28.6909 11.5683L16.6263 35.7765L30.3648 35.7415C31.2385 35.7398 32.0388 36.2331 32.429 37.0146L36.899 45.965L0 46V45.7067L1.16711 43.597L22.2501 1.27481C22.6386 0.493261 23.4372 0 24.3109 0H33.0425C33.9129 0 34.7082 0.489929 35.0983 1.26648C38.7197 8.47044 43.178 17.3275 47.6364 26.1795C51.0994 33.0569 54.5574 39.9225 57.6119 46H47.438C46.5677 46 45.774 45.5134 45.3839 44.7352C43.1397 40.2725 40.7655 35.5515 38.3846 30.8305C35.0366 24.1782 31.6887 17.5258 28.6909 11.5683Z" fill="#64169C"/>
<path d="M28.6909 11.5683L16.6263 35.7765L30.3648 35.7415C31.2385 35.7398 32.0388 36.2331 32.429 37.0146L36.899 45.965L0 46V45.7067L1.16711 43.597L22.2501 1.27481C22.6386 0.493261 23.4372 0 24.3109 0H33.0425C33.9129 0 34.7082 0.489929 35.0983 1.26648C38.7197 8.47044 43.178 17.3275 47.6364 26.1795C51.0994 33.0569 54.5574 39.9225 57.6119 46H47.438C46.5677 46 45.774 45.5134 45.3839 44.7352C43.1397 40.2725 40.7655 35.5515 38.3846 30.8305C35.0366 24.1782 31.6887 17.5258 28.6909 11.5683Z" fill="url(#paint0_linear_312_20)"/>
<path d="M69.1946 27.8876H68.9411L77.8579 45.7134H67.7224C66.8503 45.7134 66.0551 45.2218 65.6649 44.4419L57.3784 27.8876L55.9462 25.0247L52.2015 17.5375H69.0779C70.8319 17.5375 72.3975 16.2793 72.6192 14.5396C72.8876 12.4349 71.2487 10.6368 69.1962 10.6368H51.5929C49.8489 10.6368 48.2566 9.65194 47.4763 8.09383L43.5699 0.286624H68.8795C76.6007 0.286624 83.1265 6.60071 82.9981 14.3179C82.8764 21.8202 76.7341 27.8876 69.1946 27.8876Z" fill="#64169C"/>
<path d="M69.1946 27.8876H68.9411L77.8579 45.7134H67.7224C66.8503 45.7134 66.0551 45.2218 65.6649 44.4419L57.3784 27.8876L55.9462 25.0247L52.2015 17.5375H69.0779C70.8319 17.5375 72.3975 16.2793 72.6192 14.5396C72.8876 12.4349 71.2487 10.6368 69.1962 10.6368H51.5929C49.8489 10.6368 48.2566 9.65194 47.4763 8.09383L43.5699 0.286624H68.8795C76.6007 0.286624 83.1265 6.60071 82.9981 14.3179C82.8764 21.8202 76.7341 27.8876 69.1946 27.8876Z" fill="url(#paint1_linear_312_20)"/>
<path d="M57.3784 27.8876H57.3668L55.9345 25.0297L55.9462 25.0247L57.3784 27.8876Z" fill="#64169C"/>
<path d="M57.3784 27.8876H57.3668L55.9345 25.0297L55.9462 25.0247L57.3784 27.8876Z" fill="url(#paint2_linear_312_20)"/>
<defs>
<linearGradient id="paint0_linear_312_20" x1="61.3262" y1="-55.9077" x2="2.4358" y2="45.9639" gradientUnits="userSpaceOnUse">
<stop stop-color="#D70A84"/>
<stop offset="1" stop-color="#64169C"/>
</linearGradient>
<linearGradient id="paint1_linear_312_20" x1="61.3262" y1="-55.9077" x2="2.4358" y2="45.9639" gradientUnits="userSpaceOnUse">
<stop stop-color="#D70A84"/>
<stop offset="1" stop-color="#64169C"/>
</linearGradient>
<linearGradient id="paint2_linear_312_20" x1="61.3262" y1="-55.9077" x2="2.4358" y2="45.9639" gradientUnits="userSpaceOnUse">
<stop stop-color="#D70A84"/>
<stop offset="1" stop-color="#64169C"/>
</linearGradient>
</defs>
</svg>
