<svg width="43" height="64" viewBox="0 0 43 64" fill="none" xmlns="http://www.w3.org/2000/svg">
<path d="M10.9696 64C16.8576 64 21.6363 59.2213 21.6363 53.3333V42.6666H10.9696C5.08165 42.6666 0.302979 47.4453 0.302979 53.3333C0.302979 59.2213 5.08165 64 10.9696 64Z" fill="#0ACF83"/>
<path d="M0.302979 32C0.302979 26.112 5.08165 21.3334 10.9696 21.3334H21.6363V42.6667H10.9696C5.08165 42.6667 0.302979 37.888 0.302979 32Z" fill="#A259FF"/>
<path d="M0.302979 10.6667C0.302979 4.77867 5.08165 0 10.9696 0H21.6363V21.3333H10.9696C5.08165 21.3333 0.302979 16.5547 0.302979 10.6667Z" fill="#F24E1E"/>
<path d="M21.6363 0H32.303C38.191 0 42.9696 4.77867 42.9696 10.6667C42.9696 16.5547 38.191 21.3333 32.303 21.3333H21.6363V0Z" fill="#FF7262"/>
<path d="M42.9696 32C42.9696 37.888 38.191 42.6667 32.303 42.6667C26.415 42.6667 21.6363 37.888 21.6363 32C21.6363 26.112 26.415 21.3334 32.303 21.3334C38.191 21.3334 42.9696 26.112 42.9696 32Z" fill="#1ABCFE"/>
</svg>
