<svg width="67" height="64" viewBox="0 0 67 64" fill="none" xmlns="http://www.w3.org/2000/svg">
<rect x="6.11389" y="6.65991" width="54.2333" height="52.3632" fill="#FF9A00"/>
<path d="M29.4438 28.5265C29.1703 27.6786 28.9241 26.8581 28.6506 26.0103C28.3771 25.1624 28.131 24.3692 27.9122 23.5761C27.6934 22.8103 27.5019 22.0991 27.3105 21.4427H27.2558C27.0096 22.6188 26.7088 23.7949 26.3258 24.9709C25.9156 26.2838 25.5053 27.6513 25.0677 29.0188C24.6848 30.4137 24.2746 31.6991 23.8643 32.8479H30.8113C30.6472 32.2708 30.4284 31.5897 30.1823 30.8759C29.9361 30.1402 29.69 29.347 29.4438 28.5265ZM54.6609 0H12.2677C5.84038 0 0.643799 5.19658 0.643799 11.6239V52.3761C0.643799 58.8034 5.84038 64 12.2677 64H54.6609C61.0882 64 66.2848 58.8034 66.2848 52.3761V11.6239C66.2848 5.19658 61.0882 0 54.6609 0ZM40.8489 45.2103H35.13C34.9412 45.2376 34.7498 45.1009 34.6951 44.9094L32.4523 38.4H22.278L20.1994 44.8274C20.1447 45.0735 19.9258 45.2376 19.6797 45.213H14.5378C14.237 45.213 14.1549 45.0462 14.237 44.7207L23.0438 19.3641C23.1258 19.0906 23.2079 18.7897 23.3173 18.4615C23.4267 17.8872 23.4814 17.2855 23.4814 16.6838C23.4541 16.547 23.5635 16.4103 23.7002 16.3829H30.784C31.0028 16.3829 31.1122 16.465 31.1395 16.6017L41.1224 44.7726C41.2045 45.0708 41.1224 45.2103 40.8489 45.2103ZM50.1481 44.8C50.1481 45.1009 50.0414 45.2376 49.7952 45.2376H44.4318C44.1583 45.2376 44.0216 45.0708 44.0216 44.8V23.7402C44.0216 23.4667 44.1337 23.3573 44.3799 23.3573H49.7952C50.0414 23.3573 50.1481 23.494 50.1481 23.7402V44.8ZM49.5764 20.1026C49.2534 20.4306 48.864 20.6857 48.4342 20.8509C48.0045 21.016 47.5444 21.0872 47.0848 21.0598C46.1823 21.0872 45.307 20.7316 44.6479 20.1026C44.0213 19.4174 43.6875 18.5143 43.718 17.5863C43.6906 16.6564 44.0462 15.7812 44.6999 15.1521C45.3617 14.5231 46.237 14.1949 47.1395 14.1949C48.2089 14.1949 49.024 14.5231 49.6284 15.1521C50.2301 15.8085 50.5583 16.6838 50.531 17.5863C50.5583 18.5162 50.2301 19.4188 49.5764 20.1026Z" fill="#330000"/>
</svg>
