<svg width="66" height="64" viewBox="0 0 66 64" fill="none" xmlns="http://www.w3.org/2000/svg">
<rect x="5.47034" y="6.6604" width="54.2356" height="52.3654" fill="#31A8FF"/>
<path d="M26.9413 22.2095C25.9293 21.7992 24.8352 21.6351 23.7138 21.6625C23.0027 21.6625 22.3736 21.6625 21.8539 21.6898C21.3069 21.6625 20.924 21.6898 20.7325 21.7172V30.9073C21.1154 30.9347 21.471 30.962 21.7992 30.962H23.2489C24.3156 30.962 25.3823 30.7979 26.3943 30.4697C27.2695 30.2235 28.0354 29.7038 28.6371 29.02C29.2115 28.3363 29.485 27.4063 29.485 26.2028C29.5124 25.3549 29.2936 24.507 28.8559 23.7685C28.3999 23.0584 27.7292 22.5122 26.9413 22.2095ZM54.0194 0H11.6244C5.1968 0 0 5.1968 0 11.6244V52.3756C0 58.8032 5.1968 64 11.6244 64H54.0194C60.447 64 65.6438 58.8032 65.6438 52.3756V11.6244C65.6438 5.1968 60.447 0 54.0194 0ZM33.8038 31.8646C32.7125 33.3963 31.1808 34.5451 29.403 35.2015C27.5431 35.8853 25.4917 36.1315 23.2489 36.1315C22.5924 36.1315 22.1548 36.1315 21.8813 36.1041C21.6078 36.0768 21.2248 36.0768 20.7052 36.0768V44.8539C20.7325 45.0453 20.5958 45.2122 20.4043 45.2395H15.0981C14.8793 45.2395 14.7699 45.1274 14.7699 44.8812V16.7392C14.7699 16.5477 14.8519 16.4383 15.0434 16.4383C15.5084 16.4383 15.946 16.4383 16.5751 16.411C17.2315 16.3836 17.9153 16.3836 18.6538 16.3563C19.3923 16.3289 20.1855 16.3289 21.0334 16.3016C21.8813 16.2742 22.7018 16.2742 23.5224 16.2742C25.7652 16.2742 27.6251 16.5477 29.1568 17.1221C30.5244 17.5871 31.7826 18.3529 32.8219 19.3649C33.6972 20.2402 34.381 21.3069 34.8186 22.483C35.2261 23.6318 35.4449 24.8079 35.4449 26.0387C35.4477 28.391 34.9006 30.3329 33.8038 31.8646ZM53.1989 42.5044C52.433 43.5984 51.3636 44.4436 50.1355 44.9414C48.7952 45.5131 47.1541 45.8112 45.1821 45.8112C43.9267 45.8112 42.6931 45.7045 41.465 45.4584C40.5077 45.2915 39.5504 44.9934 38.6752 44.5831C38.4837 44.4764 38.3442 44.285 38.3716 44.0662V39.307C38.3716 39.2277 38.4016 39.1155 38.4837 39.0608C38.563 39.0061 38.6478 39.0335 38.7299 39.0882C39.7966 39.7173 40.918 40.1576 42.1215 40.4284C43.1581 40.7019 44.2521 40.8387 45.3489 40.8387C46.3883 40.8387 47.1268 40.6992 47.6191 40.453C48.0568 40.2616 48.3576 39.7966 48.3576 39.3042C48.3576 38.9186 48.1388 38.5658 47.7012 38.2102C47.2636 37.8573 46.3637 37.4471 45.0235 36.9219C43.6285 36.4296 42.3457 35.7732 41.1395 34.9553C40.2837 34.3423 39.5731 33.5486 39.0581 32.6305C38.6234 31.7651 38.4083 30.806 38.4317 29.8379C38.4317 28.6617 38.7599 27.5403 39.3644 26.5283C40.0482 25.4342 41.0575 24.559 42.2336 24.012C43.5164 23.3583 45.1301 23.0574 47.0721 23.0574C48.1935 23.0574 49.3423 23.1395 50.4637 23.3036C51.2842 23.413 52.0774 23.6318 52.8159 23.9326C52.9226 23.96 53.0347 24.0694 53.0894 24.1788C53.1168 24.2882 53.1442 24.3976 53.1442 24.507V28.9653C53.1442 29.0747 53.0894 29.1842 53.0074 29.2389C52.7612 29.2936 52.6245 29.2936 52.5151 29.2389C51.6945 28.8012 50.8193 28.5004 49.8893 28.3089C48.8773 28.0901 47.8653 27.9533 46.8259 27.9533C46.2789 27.926 45.7045 28.008 45.1821 28.1448C44.8293 28.2268 44.5257 28.4183 44.3342 28.6918C44.1974 28.9106 44.1154 29.1842 44.1154 29.4303C44.1154 29.6765 44.2248 29.9226 44.3916 30.1415C44.6378 30.4423 44.9633 30.6885 45.3216 30.88C45.9479 31.2082 46.6071 31.509 47.2608 31.7826C48.7405 32.2749 50.1628 32.9587 51.4757 33.7792C52.3783 34.3509 53.1168 35.1194 53.6337 36.0494C54.0714 36.9192 54.2902 37.882 54.2628 38.8639C54.2929 40.1521 53.91 41.4349 53.1989 42.5044Z" fill="#001E36"/>
</svg>
