<svg width="66" height="64" viewBox="0 0 66 64" fill="none" xmlns="http://www.w3.org/2000/svg">
<rect x="5.75488" y="7.29346" width="52.8775" height="51.0541" fill="#9999FF"/>
<path d="M28.0455 22.2085C27.0188 21.8061 25.9201 21.6199 24.8182 21.6615C23.8241 21.6408 22.8296 21.659 21.837 21.7162V30.906L22.9037 30.9607H24.3532C25.4199 30.9607 26.4866 30.7966 27.4985 30.4684C28.3737 30.2222 29.1396 29.7026 29.7413 29.0188C30.3156 28.335 30.5891 27.4051 30.5891 26.2017C30.6509 25.3511 30.4368 24.5032 29.9786 23.7839C29.5204 23.0646 28.8425 22.5122 28.0455 22.2085ZM54.3019 0H11.9088C8.82592 0 5.86933 1.22466 3.68942 3.40457C1.50951 5.58448 0.284851 8.54107 0.284851 11.6239L0.284851 52.3761C0.284851 58.8034 5.48143 64 11.9088 64H54.3019C60.7293 64 65.9259 58.8034 65.9259 52.3761V11.6239C65.9259 5.19658 60.7293 0 54.3019 0ZM34.9105 31.8632C33.8165 33.3949 32.2848 34.5436 30.5071 35.2C28.6472 35.8838 26.596 36.1299 24.3532 36.1299L22.9857 36.1026L21.8096 36.0752V44.8547C21.8174 44.8999 21.8156 44.9463 21.8043 44.9908C21.793 45.0352 21.7726 45.0769 21.7442 45.113C21.7159 45.149 21.6803 45.1788 21.6397 45.2002C21.5992 45.2217 21.5546 45.2344 21.5088 45.2376H16.2028C15.984 45.2376 15.8746 45.1282 15.8746 44.882V16.7385C15.8746 16.547 15.9566 16.4376 16.1481 16.4376L17.6797 16.4103L19.7584 16.3556L22.1378 16.3009L24.6267 16.2735C26.8695 16.2735 28.7293 16.547 30.2609 17.1214C31.6284 17.5863 32.8866 18.3521 33.9259 19.3641C34.8011 20.2393 35.4848 21.306 35.9225 22.482C36.3327 23.6308 36.5515 24.8068 36.5515 26.0376C36.5515 28.3897 36.0045 30.3316 34.9105 31.8632ZM53.5635 23.2479V28.5812C53.5635 28.8 53.4267 28.882 53.1259 28.882C51.3213 28.8165 49.5255 29.1626 47.8746 29.894C47.3549 30.1402 46.8626 30.4684 46.4797 30.906V44.8547C46.4797 45.1282 46.3703 45.2376 46.1242 45.2376H40.7361C40.6858 45.2453 40.6344 45.2429 40.585 45.2305C40.5356 45.2181 40.4891 45.196 40.4484 45.1654C40.4076 45.1349 40.3734 45.0965 40.3476 45.0525C40.3219 45.0086 40.3052 44.9599 40.2985 44.9094V29.6479L40.2712 27.5966L40.2165 25.4632C40.2165 24.8342 40.1618 24.2325 40.1071 23.6034C40.0977 23.5387 40.1119 23.4727 40.147 23.4175C40.1822 23.3623 40.2359 23.3215 40.2985 23.3026H45.1669C45.4404 23.3026 45.6592 23.494 45.7139 23.7402C45.9611 24.5556 46.081 25.4044 46.0695 26.2564C46.89 25.2991 47.9019 24.506 49.0233 23.9043C50.2946 23.1981 51.7263 22.8307 53.1806 22.8376C53.372 22.8103 53.5361 22.947 53.5635 23.1385V23.2479Z" fill="#00005B"/>
</svg>
