<svg width="66" height="64" viewBox="0 0 66 64" fill="none" xmlns="http://www.w3.org/2000/svg">
<path d="M63.027 6.78001L49.7711 0.39804C49.0225 0.0370957 48.1801 -0.082016 47.3608 0.0572161C46.5415 0.196448 45.7858 0.587127 45.1984 1.1751L1.80519 40.7359C1.27871 41.2137 0.963554 41.881 0.929063 42.5911C0.894572 43.3011 1.14357 43.9958 1.62128 44.5224C1.67875 44.5844 1.73623 44.6442 1.7983 44.6994L5.34102 47.9179C5.80395 48.3393 6.39984 48.5851 7.02518 48.6129C7.65052 48.6406 8.26581 48.4484 8.7642 48.0697L61.0315 8.43527C61.4263 8.1357 61.8969 7.95226 62.3902 7.90562C62.8836 7.85898 63.3802 7.95099 63.8242 8.17128C64.2681 8.39158 64.6417 8.73141 64.903 9.15253C65.1643 9.57366 65.3028 10.0593 65.303 10.5549V10.4009C65.303 9.64431 65.0893 8.9031 64.6867 8.26254C64.2841 7.62198 63.7088 7.10809 63.027 6.78001Z" fill="#0065A9"/>
<path d="M63.027 57.2198L49.7711 63.6041C49.0223 63.964 48.1802 64.0826 47.3611 63.9434C46.542 63.8042 45.7863 63.4141 45.1984 62.827L1.80519 23.2639C1.27871 22.7862 0.963554 22.1189 0.929063 21.4088C0.894572 20.6987 1.14357 20.004 1.62128 19.4775C1.67875 19.4154 1.73623 19.3556 1.7983 19.3004L5.34102 16.0819C5.80442 15.6588 6.40167 15.4118 7.02855 15.3841C7.65543 15.3564 8.27215 15.5496 8.7711 15.9301L61.0315 55.5645C61.4263 55.8641 61.8969 56.0476 62.3902 56.0942C62.8836 56.1408 63.3802 56.0488 63.8242 55.8285C64.2681 55.6082 64.6417 55.2684 64.903 54.8473C65.1643 54.4262 65.3028 53.9405 65.303 53.4449V53.6104C65.3005 54.365 65.0858 55.1036 64.6833 55.7419C64.2808 56.3802 63.7068 56.8923 63.027 57.2198Z" fill="#007ACC"/>
<path d="M49.7711 63.6039C49.0223 63.9638 48.1802 64.0823 47.3611 63.9431C46.542 63.8039 45.7864 63.4139 45.1985 62.8268C45.5286 63.1526 45.9476 63.3738 46.4029 63.4625C46.8582 63.5513 47.3295 63.5037 47.7579 63.3257C48.1862 63.1478 48.5525 62.8473 48.8109 62.4621C49.0692 62.0768 49.2081 61.6239 49.2102 61.16V2.83954C49.2106 2.37351 49.0726 1.91785 48.8138 1.53028C48.555 1.14271 48.187 0.840678 47.7564 0.662433C47.3258 0.484188 46.852 0.437755 46.395 0.529016C45.938 0.620276 45.5184 0.845124 45.1893 1.17508C45.7767 0.587322 46.5323 0.196618 47.3515 0.0569993C48.1706 -0.0826197 49.013 0.0357446 49.7619 0.395723L63.0156 6.76849C63.6995 7.09495 64.2771 7.60812 64.6819 8.24881C65.0866 8.88949 65.302 9.63156 65.303 10.3894V53.6102C65.3032 54.3674 65.0895 55.1093 64.6864 55.7503C64.2833 56.3913 63.7073 56.9055 63.0248 57.2334L49.7711 63.6039Z" fill="#1F9CF0"/>
</svg>
