<svg width="46" height="64" viewBox="0 0 46 64" fill="none" xmlns="http://www.w3.org/2000/svg">
<path d="M22.985 64L4.46826 58.8595L0.341797 12.5775H45.6836L41.5529 58.8524L22.985 64Z" fill="#1572B6"/>
<path d="M38.0165 55.9058L41.5463 16.3617H23.0127V60.0653L38.0165 55.9058Z" fill="#33A9DC"/>
<path d="M9.80156 33.5271L10.3102 39.2034H23.0127V33.5271H9.80156ZM8.77923 22.0382L9.29519 27.7145H23.0127V22.0382H8.77923ZM23.0127 48.2691L22.9878 48.2757L16.6662 46.5687L16.262 42.0417H10.5639L11.359 50.9543L22.9866 54.182L23.0127 54.1749V48.2691Z" fill="#EBEBEB"/>
<path d="M11.0128 0H17.8876V2.87503H13.8878V5.75006H17.8879V8.62491H11.0128V0ZM19.2627 0H26.1376V2.50001H22.1377V2.99998H26.1376V8.75004H19.2629V6.12472H23.2628V5.62476H19.2625V0H19.2627ZM27.5128 0H34.3877V2.50001H30.3878V2.99998H34.3877V8.75004H27.5128V6.12472H31.5127V5.62476H27.5129V0H27.5128Z" fill="#33A9DC"/>
<path d="M36.1876 33.5271L37.2123 22.0382H22.9932V27.7145H30.9916L30.4751 33.5271H22.9932V39.2034H29.9829L29.3239 46.5652L22.993 48.2739V54.1793L34.6298 50.9543L34.7151 49.9953L36.0492 35.0514L36.1876 33.5271Z" fill="white"/>
</svg>
