<svg width="46" height="64" viewBox="0 0 46 64" fill="none" xmlns="http://www.w3.org/2000/svg">
<path d="M45.3418 12.5775L41.2111 58.8524L22.6432 64L4.12646 58.8595L0 12.5775H45.3418Z" fill="#E44D26"/>
<path d="M22.6709 60.0653L37.6747 55.9058L41.2045 16.3617H22.6709V60.0653Z" fill="#F16529"/>
<path d="M14.6409 27.7145H22.6709V22.0382H8.43741L8.5732 23.561L9.96841 39.2034H22.6709V33.5271H15.1597L14.6409 27.7145ZM15.9202 42.0417H10.222L11.0172 50.9543L22.6448 54.182L22.6709 54.1749V48.2691L22.646 48.2757L16.3244 46.5687L15.9202 42.0417Z" fill="#EBEBEB"/>
<path d="M4.21854 0H7.10316V2.84997H9.74199V0H12.6268V8.63042H9.74216V5.74046H7.10334V8.63042H4.21871V0H4.21854ZM16.42 2.86206H13.8809V0H21.8459V2.86206H19.3052V8.63042H16.4205V2.86206H16.4204H16.42ZM23.1099 0H26.1177L27.9679 3.0325L29.8164 0H32.8254V8.63042H29.9525V4.35271L27.9679 7.4213H27.9182L25.9323 4.35271V8.63042H23.1099V0ZM34.261 0H37.1465V5.77779H41.2031V8.63042H34.2608V0H34.261Z" fill="#F16529"/>
<path d="M22.6514 39.2034H29.6411L28.9821 46.5652L22.6512 48.2739V54.1793L34.288 50.9543L34.3733 49.9953L35.7074 35.0514L35.8458 33.5271H22.6514V39.2034ZM22.6514 27.7006V27.7145H36.3623L36.4761 26.4387L36.7349 23.561L36.8705 22.0382H22.6514V27.7008V27.7006Z" fill="white"/>
</svg>
