<svg width="65" height="64" viewBox="0 0 65 64" fill="none" xmlns="http://www.w3.org/2000/svg">
<path d="M0.683594 0H64.6836V64H0.683594V0Z" fill="#F5DE19"/>
<path d="M43.6755 50C44.2208 51.1076 45.068 52.0386 46.1195 52.6857C47.171 53.3327 48.3839 53.6695 49.6184 53.6571C52.1098 53.6571 53.703 52.4114 53.703 50.6857C53.703 48.6285 52.0664 47.8925 49.3235 46.6925L47.8195 46.048C43.4767 44.1988 40.5967 41.8834 40.5967 36.9874C40.5967 32.4777 44.0252 29.0423 49.4035 29.0423C51.1446 28.9165 52.8841 29.3062 54.4051 30.1626C55.9262 31.0191 57.1614 32.3044 57.9567 33.8583L53.255 36.864C52.9487 36.0935 52.4155 35.4343 51.726 34.9739C51.0366 34.5134 50.2234 34.2734 49.3944 34.2857C49.0327 34.2495 48.6674 34.289 48.3219 34.4018C47.9763 34.5145 47.658 34.698 47.3873 34.9406C47.1166 35.1831 46.8993 35.4794 46.7494 35.8106C46.5995 36.1417 46.5203 36.5005 46.5167 36.864C46.5167 38.6674 47.6344 39.3988 50.215 40.5211L51.719 41.1657C56.8298 43.3577 59.719 45.5908 59.719 50.6125C59.719 56.0274 55.4652 58.9943 49.7533 58.9943C47.5277 59.1361 45.3086 58.6308 43.3638 57.5393C41.419 56.4479 39.8317 54.817 38.7932 52.8434L43.6755 50ZM22.4298 50.5211C23.3738 52.1965 24.2332 53.6137 26.2995 53.6137C28.2744 53.6137 29.5224 52.8411 29.5224 49.8354V29.3851H35.5361V49.9154C35.5361 56.1417 31.879 58.976 26.5555 58.976C24.6738 59.0788 22.805 58.6099 21.1948 57.6308C19.5846 56.6517 18.3083 55.2083 17.5338 53.4903L22.4298 50.5211Z" fill="black"/>
</svg>
