<?xml version="1.0" encoding="utf-8"?>
<!-- Generator: Adobe Illustrator 25.4.1, SVG Export Plug-In . SVG Version: 6.00 Build 0)  -->
<svg version="1.1" id="Camada_1" xmlns="http://www.w3.org/2000/svg" xmlns:xlink="http://www.w3.org/1999/xlink" x="0px" y="0px"
	 viewBox="0 0 128 128" style="enable-background:new 0 0 128 128;" xml:space="preserve">
<style type="text/css">
	.st0{fill-rule:evenodd;clip-rule:evenodd;fill:#F7FAFC;}
</style>
<path class="st0" d="M13.7,87.1c-1.4-1.9-1.4-4.6,0-6.5L60.6,4.1c2.8-4.2,8.8-3.7,11.1,0.5l43.2,93.3c1.4,3.2-0.5,7.4-3.7,8.8
	l-66.8,20c-2.8,0.9-5.6-0.5-7-2.8L13.7,87.1z M66.2,26.3c0.5-2.3,3.7-2.8,4.6-0.5l29.7,68.7c0.5,1.4,0,2.8-1.4,3.2l-45.9,13.9
	c-1.9,0.5-3.2-0.9-2.8-2.8L66.2,26.3z"/>
</svg>
