<svg width="73" height="64" viewBox="0 0 73 64" fill="none" xmlns="http://www.w3.org/2000/svg">
<path d="M59.827 20.7437C59.0615 20.481 58.2895 20.2377 57.5117 20.014C57.6423 19.4801 57.7626 18.9527 57.8694 18.4345C59.6222 9.92589 58.4763 3.07116 54.5624 0.814257C50.8098 -1.34936 44.6727 0.906703 38.4747 6.30085C37.8638 6.83342 37.2665 7.38134 36.6834 7.94408C36.293 7.56987 35.8957 7.20293 35.4917 6.84344C28.9958 1.07586 22.4847 -1.35498 18.575 0.908389C14.8258 3.07875 13.7156 9.52267 15.2936 17.5865C15.4506 18.3851 15.6279 19.1797 15.8253 19.9693C14.9036 20.2312 14.0143 20.5099 13.1632 20.8066C5.54723 23.462 0.683594 27.6231 0.683594 31.9394C0.683594 36.3973 5.90493 40.8687 13.8373 43.58C14.4803 43.7989 15.1288 44.0017 15.782 44.1883C15.5698 45.0388 15.3815 45.895 15.2172 46.756C13.7128 54.6799 14.8876 60.9715 18.6267 63.1281C22.4886 65.3552 28.9705 63.0663 35.2818 57.5491C35.7936 57.1005 36.2941 56.6393 36.7828 56.1657C37.4144 56.7751 38.0628 57.3667 38.7273 57.9399C44.841 63.2006 50.8789 65.3249 54.6144 63.1624C58.4727 60.9288 59.7267 54.1699 58.0987 45.9467C57.9704 45.3025 57.8266 44.6615 57.6673 44.0242C58.1225 43.8893 58.5693 43.7505 59.0049 43.6061C67.2513 40.874 72.6168 36.4569 72.6168 31.9394C72.6168 27.6074 67.5961 23.4181 59.827 20.7437ZM58.0385 40.6894C57.6451 40.8195 57.2416 40.9451 56.8303 41.0674C55.9199 38.1852 54.6914 35.1208 53.1878 31.9543C54.6225 28.8634 55.8038 25.838 56.6887 22.9747C57.4246 23.1877 58.1386 23.4122 58.827 23.6491C65.4836 25.9409 69.5439 29.3288 69.5439 31.9394C69.5439 34.7201 65.1588 38.33 58.0385 40.6894ZM55.0842 46.5436C55.8041 50.1796 55.9067 53.4671 55.4298 56.0373C55.0016 58.3468 54.1401 59.8863 53.0746 60.5031C50.8078 61.8153 45.9599 60.1097 40.7316 55.6105C40.1135 55.0776 39.5103 54.5276 38.9228 53.9611C40.9499 51.7444 42.9755 49.1674 44.9526 46.3053C48.4301 45.9967 51.7154 45.4921 54.6948 44.8034C54.8383 45.3803 54.9681 45.9605 55.0842 46.5436ZM25.2072 60.2763C22.9924 61.0583 21.2284 61.0808 20.162 60.466C17.8931 59.1574 16.9498 54.1055 18.2364 47.3292C18.3894 46.5285 18.5645 45.7321 18.7616 44.9411C21.708 45.593 24.9695 46.0617 28.4552 46.3443C30.4457 49.1449 32.5298 51.7191 34.6302 53.9732C34.1838 54.4051 33.7269 54.826 33.2598 55.2354C30.4687 57.6749 27.672 59.4058 25.2072 60.2763ZM14.8314 40.6723C11.3238 39.4733 8.42709 37.9152 6.44162 36.215C4.65734 34.6872 3.75677 33.1702 3.75677 31.9394C3.75677 29.32 7.66168 25.9791 14.1747 23.7084C14.9651 23.433 15.7924 23.1731 16.6508 22.9292C17.5511 25.8571 18.7318 28.9185 20.1567 32.0142C18.7133 35.1556 17.5157 38.2659 16.6067 41.2284C16.0105 41.0576 15.4185 40.8722 14.8314 40.6723ZM18.3095 16.9961C16.9576 10.0875 17.8554 4.87596 20.1148 3.56795C22.5212 2.17481 27.8426 4.16112 33.4514 9.14137C33.8172 9.46686 34.177 9.79895 34.5307 10.1375C32.4407 12.3817 30.3757 14.9368 28.4029 17.7208C25.0198 18.0344 21.7814 18.5379 18.804 19.2126C18.6206 18.4781 18.4557 17.7389 18.3095 16.9961ZM49.3383 24.6581C48.635 23.4434 47.9057 22.244 47.1508 21.0606C49.4459 21.3509 51.6449 21.7361 53.7099 22.2071C53.09 24.1942 52.3173 26.2716 51.4077 28.4015C50.7429 27.1401 50.0529 25.892 49.3383 24.6581ZM36.6848 12.3337C38.1021 13.8693 39.5216 15.5836 40.9179 17.4438C38.0855 17.31 35.2484 17.3094 32.416 17.4421C33.8136 15.5991 35.2453 13.887 36.6848 12.3337ZM23.9501 24.6792C23.2443 25.9032 22.5672 27.1434 21.9193 28.399C21.0247 26.2766 20.259 24.1897 19.6338 22.1745C21.6861 21.7154 23.8747 21.34 26.1553 21.055C25.3919 22.2456 24.6567 23.4542 23.9501 24.6792ZM26.2207 43.0424C23.8646 42.7794 21.6431 42.4234 19.5914 41.9766C20.2264 39.9254 21.0089 37.7941 21.923 35.6263C22.5734 36.8828 23.2533 38.1238 23.9621 39.3483C24.691 40.6071 25.4458 41.8401 26.2207 43.0424ZM36.7696 51.7615C35.313 50.1902 33.8603 48.4518 32.4415 46.5821C33.819 46.636 35.2231 46.6635 36.6502 46.6635C38.1164 46.6635 39.5657 46.6307 40.9923 46.5672C39.5916 48.4706 38.1774 50.2116 36.7696 51.7615ZM51.4367 35.5156C52.3982 37.7073 53.2086 39.8273 53.8521 41.8434C51.7666 42.3194 49.5147 42.7027 47.1421 42.9874C47.9023 41.7821 48.6386 40.5618 49.3503 39.3272C50.074 38.0723 50.7696 36.8014 51.4367 35.5156ZM46.6885 37.7919C45.5989 39.6847 44.448 41.5416 43.2377 43.3597C41.0453 43.5149 38.8481 43.5921 36.6502 43.5909C34.4116 43.5909 32.2342 43.5212 30.1374 43.3852C28.8955 41.5714 27.7227 39.7112 26.6214 37.8087C25.5253 35.9163 24.5018 33.9829 23.5525 32.0128C24.4994 30.0422 25.5201 28.1079 26.6124 26.214C27.7043 24.3196 28.8675 22.4677 30.1001 20.6616C32.2392 20.4998 34.4329 20.4155 36.6499 20.4155C38.877 20.4155 41.0738 20.5006 43.2124 20.6636C44.4325 22.467 45.5885 24.3128 46.6784 26.1977C47.7744 28.0874 48.8086 30.0123 49.7794 31.9692C48.8186 33.9462 47.7876 35.8883 46.6885 37.7919ZM53.0277 3.47635C55.4363 4.86556 56.3731 10.4676 54.8597 17.8141C54.763 18.2828 54.6546 18.7602 54.5366 19.2443C51.5519 18.5553 48.3112 18.0431 44.9183 17.7247C42.9418 14.9101 40.8937 12.3511 38.8377 10.1358C39.3765 9.61638 39.9282 9.11045 40.4922 8.61845C45.8029 3.99702 50.7663 2.17228 53.0277 3.47635ZM36.6502 25.516C40.1977 25.516 43.0736 28.3919 43.0736 31.9394C43.0736 35.4869 40.1977 38.3628 36.6502 38.3628C33.1027 38.3628 30.2268 35.4869 30.2268 31.9394C30.2268 28.3919 33.1027 25.516 36.6502 25.516Z" fill="#00D8FF"/>
</svg>
