<svg width="86" height="64" viewBox="0 0 86 64" fill="none" xmlns="http://www.w3.org/2000/svg">
<path d="M74.1015 36.7912C71.1244 36.8066 68.5367 37.5236 66.3702 38.5837C65.5749 37.0092 64.78 35.6065 64.6399 34.5776C64.4838 33.3775 64.297 32.6448 64.4838 31.2107C64.671 29.7766 65.5127 27.7345 65.497 27.5787C65.4817 27.4229 65.3098 26.6902 63.5953 26.6748C61.8808 26.6591 60.3999 27.0021 60.2284 27.454C60.0569 27.906 59.7296 28.9349 59.5114 29.9946C59.2152 31.5537 56.0823 37.1182 54.2898 40.0331C53.7129 38.8955 53.2141 37.8977 53.1048 37.1028C52.949 35.9027 52.7618 35.1699 52.949 33.7359C53.1362 32.3018 53.978 30.26 53.9622 30.1039C53.9465 29.9481 53.775 29.2154 52.0605 29.2C50.3456 29.1843 48.8648 29.5272 48.6936 29.9792C48.5221 30.4315 48.3349 31.4912 47.9766 32.5201C47.6179 33.549 43.4561 42.8394 42.365 45.2396C41.924 46.2111 41.4615 47.1726 40.9777 48.1234C40.9777 48.1234 40.962 48.1702 40.9152 48.2481C40.7632 48.5463 40.6074 48.8425 40.4478 49.1367V49.152C40.2138 49.5732 39.9645 49.9627 39.8398 49.9627C39.7462 49.9627 39.5747 48.8405 39.8709 47.3128C40.4943 44.0863 41.9752 39.067 41.9598 38.8955C41.9598 38.8019 42.2403 37.9291 40.9934 37.4768C39.7773 37.0249 39.341 37.773 39.2317 37.773C39.1227 37.773 39.0445 38.0381 39.0445 38.0381C39.0445 38.0381 40.401 32.3954 36.4572 32.3954C33.9945 32.3954 30.5962 35.0921 28.9127 37.5236C26.999 38.5651 25.0869 39.6095 23.1764 40.6569C22.2571 41.1713 21.3061 41.6858 20.4176 42.1688C20.355 42.1067 20.2929 42.0284 20.2304 41.9663C15.4605 36.8691 6.63806 33.2682 7.01212 26.4254C7.15252 23.9313 8.00962 17.3844 23.956 9.43479C37.0806 2.96573 47.5246 4.75816 49.3328 8.73313C51.9201 14.4073 43.7369 24.9445 30.1753 26.4719C25.0003 27.0489 22.2879 25.0535 21.6023 24.3054C20.8852 23.5258 20.7759 23.479 20.5108 23.6352C20.0746 23.8692 20.355 24.5705 20.5108 24.9756C20.9163 26.0353 22.5841 27.906 25.4054 28.8259C27.8995 29.6362 33.9631 30.0885 41.3049 27.2514C49.5196 24.0714 55.9419 15.2333 54.0559 7.82922C52.1695 0.315865 39.6994 -2.16251 27.8995 2.03041C20.8852 4.52483 13.2783 8.45266 7.80705 13.5655C1.3069 19.6445 0.277976 24.9288 0.698839 27.1425C2.21114 34.9985 13.0446 40.1113 17.3779 43.8991C17.1596 44.0238 16.9567 44.1331 16.7856 44.2267C14.6187 45.3021 6.35726 49.6197 4.29974 54.187C1.96176 59.362 4.67414 63.0723 6.46657 63.5707C12.0314 65.1141 17.752 62.3395 20.8227 57.7565C23.8934 53.1738 23.5194 47.2192 22.101 44.4914C22.0853 44.4604 22.0699 44.4289 22.0385 44.3978C22.5998 44.0706 23.1764 43.7276 23.7377 43.4003C24.7692 42.7905 25.8139 42.2032 26.8709 41.6387C26.3407 43.0885 25.951 44.8187 25.7641 47.3128C25.5301 50.2435 26.7302 54.0466 28.3046 55.5429C29.0063 56.1981 29.8323 56.2134 30.3625 56.2134C32.2017 56.2134 33.0281 54.6858 33.9477 52.8776C35.0699 50.6643 36.0831 48.0923 36.0831 48.0923C36.0831 48.0923 34.8205 55.0444 38.2499 55.0444C39.4968 55.0444 40.7594 53.4232 41.3206 52.5972V52.6125C41.3206 52.6125 41.3517 52.5657 41.4142 52.4568C41.5389 52.2542 41.6168 52.1292 41.6168 52.1292V52.0984C42.1156 51.2253 43.2381 49.2456 44.9058 45.9566C47.057 41.7169 49.1302 36.4172 49.1302 36.4172C49.1302 36.4172 49.3174 37.7108 49.9562 39.862C50.3306 41.1245 51.1095 42.5118 51.7332 43.8523C51.2345 44.554 50.9226 44.9434 50.9226 44.9434L50.9383 44.9591C50.5328 45.4889 50.0966 46.0656 49.6132 46.6272C47.9141 48.6533 45.888 50.9762 45.6072 51.6461C45.2796 52.441 45.3578 53.018 45.9816 53.4857C46.4335 53.8287 47.2438 53.8751 48.0702 53.8287C49.5978 53.7193 50.6732 53.3453 51.2031 53.1116C52.0294 52.8154 52.9958 52.3632 53.8997 51.6929C55.5678 50.4614 56.5807 48.7001 56.4874 46.3778C56.4406 45.0995 56.0198 43.8212 55.5053 42.6208C55.6614 42.4028 55.8015 42.1846 55.9576 41.9663C58.5917 38.116 60.6339 33.8916 60.6339 33.8916C60.6339 33.8916 60.8211 35.1853 61.4599 37.3368C61.7718 38.4279 62.4109 39.6126 62.9719 40.7659C60.4935 42.7769 58.9658 45.1149 58.4203 46.6426C57.4385 49.4796 58.202 50.7576 59.6518 51.0538C60.3063 51.1942 61.2416 50.8823 61.9276 50.5861C62.8004 50.3056 63.8293 49.8226 64.8114 49.1052C66.4795 47.8741 68.0847 46.1592 67.9911 43.8369C67.9443 42.7769 67.6639 41.7323 67.2741 40.7191C69.3784 39.8466 72.0908 39.3632 75.551 39.7684C82.971 40.6412 84.4362 45.2707 84.1554 47.2195C83.8749 49.1677 82.3162 50.2278 81.8021 50.555C81.2873 50.8826 81.1161 50.9916 81.1629 51.2253C81.2251 51.5682 81.4745 51.5528 81.911 51.4903C82.5191 51.3814 85.8081 49.9159 85.9482 46.3307C86.1822 41.748 81.8174 36.7444 74.1015 36.7912ZM16.8635 56.0887C14.4005 58.7697 10.9714 59.7829 9.4905 58.9258C7.90065 58.0059 8.52408 54.0466 11.548 51.2099C13.3872 49.4796 15.7566 47.8737 17.3311 46.8919C17.6895 46.6736 18.2196 46.3621 18.8588 45.9723C18.9678 45.9098 19.0303 45.8787 19.0303 45.8787L19.4043 45.6447C20.5108 49.6976 19.4511 53.2674 16.8635 56.0887ZM34.7894 43.8991C33.932 45.988 32.1395 51.3346 31.0484 51.0384C30.1131 50.789 29.5361 46.7362 30.8612 42.7301C31.5315 40.7191 32.9499 38.3186 33.7762 37.3836C35.1167 35.887 36.5976 35.3879 36.9559 35.9963C37.4082 36.7912 35.3193 42.5897 34.7894 43.8991ZM49.5821 50.9759C49.2234 51.1631 48.8808 51.2878 48.7247 51.1942C48.6157 51.1317 48.8808 50.8823 48.8808 50.8823C48.8808 50.8823 50.7357 48.8873 51.4682 47.983C51.8894 47.4532 52.3878 46.8298 52.9179 46.1281V46.3307C52.9179 48.7158 50.6107 50.3214 49.5818 50.9759H49.5821ZM60.9922 48.3728C60.7271 48.1856 60.7739 47.5622 61.6625 45.6136C62.0055 44.8498 62.8158 43.5718 64.2034 42.3403C64.3591 42.8391 64.4685 43.3225 64.4527 43.7744C64.437 46.783 62.2862 47.9052 60.9922 48.3728Z" fill="#CD6799"/>
</svg>
